<svg width="1600" height="900" viewBox="0 0 1600 900" fill="none" xmlns="http://www.w3.org/2000/svg">
  <rect width="1600" height="900" fill="url(#bg3)"/>
  <circle cx="1279" cy="162" r="118" fill="#FDE68A"/>
  <ellipse cx="822" cy="812" rx="950" ry="260" fill="#D9F99D"/>
  <ellipse cx="818" cy="844" rx="1012" ry="238" fill="#86EFAC"/>
  <path d="M0 664C120 612 253 589 384 604C516 620 645 676 779 681C923 686 1066 633 1205 614C1346 594 1483 608 1600 653V900H0V664Z" fill="#22C55E" fill-opacity="0.32"/>
  <rect x="228" y="298" width="334" height="286" rx="40" fill="#F8FAFC" fill-opacity="0.72"/>
  <circle cx="397" cy="421" r="82" fill="#BBF7D0"/>
  <path d="M397 350L417 396H465L426 425L441 472L397 445L353 472L368 425L329 396H377L397 350Z" fill="#047857"/>
  <rect x="650" y="312" width="686" height="252" rx="38" fill="#ECFDF5" fill-opacity="0.78"/>
  <path d="M711 475C780 385 843 344 909 344C1001 344 1052 427 1125 427C1182 427 1225 391 1268 344V520H711V475Z" fill="#34D399"/>
  <path d="M748 509L856 399L952 458L1099 352L1263 486" stroke="#065F46" stroke-width="14" stroke-linecap="round" stroke-linejoin="round"/>
  <circle cx="748" cy="509" r="17" fill="#F8FAFC"/>
  <circle cx="856" cy="399" r="17" fill="#F8FAFC"/>
  <circle cx="952" cy="458" r="17" fill="#F8FAFC"/>
  <circle cx="1099" cy="352" r="17" fill="#F8FAFC"/>
  <circle cx="1263" cy="486" r="17" fill="#F8FAFC"/>
  <path d="M493 655C493 601.98 535.98 559 589 559H605C658.02 559 701 601.98 701 655V681H493V655Z" fill="#064E3B"/>
  <circle cx="595" cy="528" r="39" fill="#F2C69A"/>
  <rect x="567" y="575" width="56" height="105" rx="28" fill="#22C55E"/>
  <path d="M774 682C774 630.637 815.637 589 867 589H881C932.363 589 974 630.637 974 682V714H774V682Z" fill="#0F766E"/>
  <circle cx="875" cy="559" r="37" fill="#F3C59D"/>
  <rect x="846" y="602" width="58" height="111" rx="29" fill="#10B981"/>
  <path d="M1041 692C1041 642.846 1080.85 603 1130 603H1142C1191.15 603 1231 642.846 1231 692V716H1041V692Z" fill="#14532D"/>
  <circle cx="1136" cy="573" r="36" fill="#EFC4A4"/>
  <rect x="1108" y="615" width="56" height="104" rx="28" fill="#F97316"/>
  <path d="M669 741C754 705 860 697 969 715C1043 728 1116 752 1180 786" stroke="#F8FAFC" stroke-width="16" stroke-linecap="round"/>
  <defs>
    <linearGradient id="bg3" x1="188" y1="76" x2="1435" y2="784" gradientUnits="userSpaceOnUse">
      <stop stop-color="#FEFCE8"/>
      <stop offset="0.45" stop-color="#F0FDF4"/>
      <stop offset="1" stop-color="#DCFCE7"/>
    </linearGradient>
  </defs>
</svg>
