<svg width="1600" height="900" viewBox="0 0 1600 900" fill="none" xmlns="http://www.w3.org/2000/svg">
  <rect width="1600" height="900" fill="url(#bg1)"/>
  <circle cx="1240" cy="168" r="126" fill="#F7D37B" fill-opacity="0.9"/>
  <ellipse cx="800" cy="778" rx="890" ry="258" fill="#A7F3D0"/>
  <ellipse cx="820" cy="818" rx="960" ry="240" fill="#6EE7B7"/>
  <path d="M0 621C119 591 248 559 360 565C474 571 561 625 673 636C785 648 918 617 1043 595C1169 572 1284 559 1404 573C1484 582 1548 600 1600 621V900H0V621Z" fill="#10B981" fill-opacity="0.45"/>
  <rect x="266" y="309" width="211" height="207" rx="28" fill="#F8FAFC" fill-opacity="0.66"/>
  <rect x="297" y="342" width="60" height="60" rx="14" fill="#0F766E" fill-opacity="0.8"/>
  <rect x="383" y="342" width="60" height="60" rx="14" fill="#10B981"/>
  <rect x="297" y="425" width="146" height="16" rx="8" fill="#065F46" fill-opacity="0.18"/>
  <rect x="297" y="454" width="116" height="16" rx="8" fill="#065F46" fill-opacity="0.12"/>
  <path d="M1118 359L1189 285L1261 359V500H1118V359Z" fill="#F8FAFC" fill-opacity="0.78"/>
  <rect x="1146" y="396" width="33" height="33" rx="8" fill="#10B981"/>
  <rect x="1202" y="396" width="33" height="33" rx="8" fill="#34D399"/>
  <path d="M978 456C978 404.085 1019.09 363 1071 363H1327C1378.91 363 1420 404.085 1420 456V578H978V456Z" fill="#ECFDF5" fill-opacity="0.72"/>
  <rect x="1018" y="407" width="152" height="18" rx="9" fill="#065F46" fill-opacity="0.14"/>
  <rect x="1018" y="441" width="218" height="18" rx="9" fill="#065F46" fill-opacity="0.12"/>
  <rect x="1018" y="475" width="184" height="18" rx="9" fill="#065F46" fill-opacity="0.1"/>
  <circle cx="608" cy="542" r="39" fill="#F6C38B"/>
  <path d="M563 660C563 608.085 605.085 566 657 566H675C726.915 566 769 608.085 769 660V684H563V660Z" fill="#064E3B"/>
  <rect x="630" y="603" width="52" height="91" rx="24" fill="#FACC15"/>
  <circle cx="809" cy="526" r="35" fill="#F8C79C"/>
  <path d="M768 635C768 588.072 806.072 550 853 550H863C909.928 550 948 588.072 948 635V684H768V635Z" fill="#0F766E"/>
  <rect x="815" y="584" width="56" height="98" rx="26" fill="#38BDF8"/>
  <circle cx="998" cy="536" r="34" fill="#EEC4A6"/>
  <path d="M959 632C959 589.474 993.474 555 1036 555H1042C1084.53 555 1119 589.474 1119 632V684H959V632Z" fill="#065F46"/>
  <rect x="997" y="582" width="48" height="98" rx="24" fill="#FB923C"/>
  <path d="M687 621C751 591 804 591 864 620" stroke="#ECFDF5" stroke-width="14" stroke-linecap="round"/>
  <path d="M869 619C913 600 953 599 1000 617" stroke="#ECFDF5" stroke-width="14" stroke-linecap="round"/>
  <rect x="548" y="687" width="603" height="24" rx="12" fill="#022C22" fill-opacity="0.12"/>
  <defs>
    <linearGradient id="bg1" x1="156" y1="63" x2="1392" y2="821" gradientUnits="userSpaceOnUse">
      <stop stop-color="#F7FEE7"/>
      <stop offset="0.48" stop-color="#ECFDF5"/>
      <stop offset="1" stop-color="#D1FAE5"/>
    </linearGradient>
  </defs>
</svg>
